<mxfile host="app.diagrams.net" modified="2023-08-29T23:46:06.786Z" agent="Mozilla/5.0 (Windows NT 10.0; Win64; x64) AppleWebKit/537.36 (KHTML, like Gecko) Chrome/115.0.0.0 Safari/537.36" version="21.7.0" etag="qh7u2wSDSwPC2ed1jfZ7" type="github">
  <diagram name="PÃ¡gina-1" id="LnfkoUukj8omBp-YKY6t">
    <mxGraphModel>
      <root>
        <mxCell id="0" />
        <mxCell id="1" parent="0" />
      </root>
    </mxGraphModel>
  </diagram>
</mxfile>
